<svg version="1.1" id="Layer_1" xmlns="http://www.w3.org/2000/svg" xmlns:xlink="http://www.w3.org/1999/xlink" x="0px" y="0px" viewBox="0 0 500 500" style="width: 151px;" xml:space="preserve" data-imageid="shopping-cart-60" imageName="Shopping Cart" class="illustrations_image">
<style type="text/css">
	.st0_shopping-cart-60{fill:#B55A16;}
	.st1_shopping-cart-60{opacity:0.63;fill:url(#SVGID_1_);enable-background:new    ;}
	.st2_shopping-cart-60{fill:#F15A24;}
	.st3_shopping-cart-60{fill:#68E1FD;}
	.st4_shopping-cart-60{opacity:0.28;fill:#606060;enable-background:new    ;}
	.st5_shopping-cart-60{opacity:0.81;fill:#606060;enable-background:new    ;}
	.st6_shopping-cart-60{opacity:0.63;fill:url(#SVGID_00000051351981023079193790000008615745426025432460_);enable-background:new    ;}
	.st7_shopping-cart-60{opacity:0.63;fill:url(#SVGID_00000170998343398579344490000013808101577058692264_);enable-background:new    ;}
	.st8_shopping-cart-60{fill:#FFB288;}
	.st9_shopping-cart-60{fill:#29333F;}
	.st10_shopping-cart-60{opacity:0.31;fill:#29333F;enable-background:new    ;}
	.st11_shopping-cart-60{fill:#56D66E;}
	.st12_shopping-cart-60{fill:#E8956B;}
	.st13_shopping-cart-60{fill:#A0421D;}
	.st14_shopping-cart-60{fill:#40B550;}
	.st15_shopping-cart-60{opacity:0.63;fill:url(#SVGID_00000027586082251912714110000000822007928786966688_);enable-background:new    ;}
</style>
<path id="field_shopping-cart-60" class="st0_shopping-cart-60" d="M242.8,417.1L17.1,283.7c-7.2-4-13.4-10.7-6.4-15l226.5-130.6c3.4-2.1,8.6-3.5,12-1.5l236.9,137.5&#10;&#9;c7.2,4.2,8.5,15.8,1.3,20l-215,122.7C263.4,422.2,252.1,422.3,242.8,417.1z"/>
<g id="bag2_shopping-cart-60">
	
		<linearGradient id="SVGID_1_-shopping-cart-60" gradientUnits="userSpaceOnUse" x1="371.8798" y1="160.775" x2="419.2398" y2="223.475" gradientTransform="matrix(1 0 0 -1 0 502)">
		<stop offset="0" style="stop-color:#F15A24;stop-opacity:0"/>
		<stop offset="1" style="stop-color:#A0421D"/>
	</linearGradient>
	<path class="st1_shopping-cart-60" d="M407.1,276.2c-11.5,5.8-22.3,13.4-33.2,20c-9.3,5.6-18.6,11.2-28,16.6l40.2,23.6l63.1-34.6L407.1,276.2z"/>
	<path class="st2_shopping-cart-60" d="M440.9,192.9c14.2,1,13.5,24,14.5,33.5c0.2,2.4-3.5,3.2-3.7,0.8c-0.8-8-0.3-18.7-4.7-25.7&#10;&#9;&#9;c-1.4-2.2-3-4.3-5.8-4.5c-1.7-0.1-3.4,0.6-4.6,1.8c-1.2,1.1-1.9,5.6-2.1,6.9c-0.7,4.9-0.8,9.9-0.2,14.9c0.2,2.4-3.5,3.2-3.7,0.8&#10;&#9;&#9;C429.6,213.9,428.2,192,440.9,192.9z"/>
	<polyline class="st3_shopping-cart-60 targetColor" points="419.6,208.4 415.3,215.5 406.7,217.3 413.2,239.4 431.3,227.6 &#9;" style="fill: rgb(104, 225, 253);"/>
	<polyline class="st4_shopping-cart-60" points="419.6,208.4 415.3,215.5 406.7,217.3 413.2,239.4 431.3,227.6 &#9;"/>
	<polygon class="st3_shopping-cart-60 targetColor" points="463.4,232.6 419.6,208.4 421,244.4 454.5,247.6 &#9;" style="fill: rgb(104, 225, 253);"/>
	<polygon class="st5_shopping-cart-60" points="463.4,232.6 419.6,208.4 421,244.4 454.5,247.6 &#9;"/>
	<polygon class="st3_shopping-cart-60 targetColor" points="447.7,237.9 441,306 400,281.4 406.7,217.3 &#9;" style="fill: rgb(104, 225, 253);"/>
	<polygon class="st3_shopping-cart-60 targetColor" points="447.7,237.9 452.4,232.6 463.4,232.6 463.4,292.5 456.2,297.6 441,306 &#9;" style="fill: rgb(104, 225, 253);"/>
	<polygon class="st4_shopping-cart-60" points="447.7,237.9 452.4,232.6 463.4,232.6 463.4,292.5 456.2,297.6 441,306 &#9;"/>
	<path class="st2_shopping-cart-60" d="M422.5,204.3c14.3,0.1,14.9,23.1,16.4,32.6c0.4,2.4-3.2,3.4-3.6,1c-1.3-7.9-1.4-18.7-6.2-25.4&#10;&#9;&#9;c-2-2.8-5.5-5.1-8.9-3.3c-3.1,1.6-3.1,5.2-3.4,8.3c-0.4,5-0.2,10,0.6,14.9c0.4,2.4-3.2,3.4-3.6,1&#10;&#9;&#9;C412.6,225.9,409.8,204.2,422.5,204.3z"/>
</g>
<g id="shopping-cart_shopping-cart-60">
	
		<linearGradient id="SVGID_00000116194874122879404020000017505304712785341579_-shopping-cart-60" gradientUnits="userSpaceOnUse" x1="228.1971" y1="128.8432" x2="262.7171" y2="160.0231" gradientTransform="matrix(1 0 0 -1 0 502)">
		<stop offset="0" style="stop-color:#F15A24;stop-opacity:0"/>
		<stop offset="1" style="stop-color:#A0421D"/>
	</linearGradient>
	
		<polyline style="opacity:0.63;fill:url(#SVGID_00000116194874122879404020000017505304712785341579_);enable-background:new    ;" points="&#10;&#9;&#9;318.7,356.5 258.2,397.9 179.8,351.8 247.7,313.3 &#9;"/>
	
		<linearGradient id="SVGID_00000143577762732780526470000017600092737679482505_-shopping-cart-60" gradientUnits="userSpaceOnUse" x1="88.9088" y1="165.6009" x2="138.4288" y2="231.1609" gradientTransform="matrix(1 0 0 -1 0 502)">
		<stop offset="0" style="stop-color:#F15A24;stop-opacity:0"/>
		<stop offset="1" style="stop-color:#A0421D"/>
	</linearGradient>
	
		<polyline style="opacity:0.63;fill:url(#SVGID_00000143577762732780526470000017600092737679482505_);enable-background:new    ;" points="&#10;&#9;&#9;182.4,304.7 125.3,346.1 46.9,300 99.2,272.9 &#9;"/>
	<path class="st8_shopping-cart-60" d="M105,216.7c-0.1-0.1-3.7,5.2-3.9,5.5c-6.5,9.9-8,21.9-10.6,33.1c-1.3,5.5-3.8,12.2-3.8,17.8&#10;&#9;&#9;c1.2,3.7,3.3,8.7,6.2,7.4c4.4-2.1,23.1-35.5,26.8-55.8L105,216.7z"/>
	<path class="st8_shopping-cart-60" d="M163.3,224c0,0,3.3,61.5,0.9,62.5s-8.3,0.9-10.5-2s-5-29.6-4.5-37s-1.5-23.5-1.5-23.5"/>
	<path class="st9_shopping-cart-60" d="M168.3,288.4c-1.4-2.2-2.3-4.6-2.8-7.2c-4.9,1.2-8.7,2-12.8-0.5c-0.8,3.5-3.6,7.9-3.4,10.6&#10;&#9;&#9;c0.3,4.3,4,2.9,7.6,4c2.5,0.8,4.4,3.4,5.9,5.8c4.8,5.5,13,6.7,19.5,3.7c0.4-1,0.7-2.1,0.8-3.2C183.7,296.6,171,292.1,168.3,288.4z"/>
	<path class="st3_shopping-cart-60 targetColor" d="M117.8,164.7c-2.6,1.2-6,13.5-9.6,27S86.7,265,86.7,265s8.2,4.4,16.5,4.5s31.2-77.2,31.2-77.2&#10;&#9;&#9;s11.1,83.2,15,84.2s17.7-2,17.7-2s-3.5-105.9-23.4-114.9" style="fill: rgb(104, 225, 253);"/>
	<path class="st10_shopping-cart-60" d="M117.8,164.7c-2.6,1.2-6,13.5-9.6,27S86.7,265,86.7,265s8.2,4.4,16.5,4.5s31.2-77.2,31.2-77.2&#10;&#9;&#9;s11.1,83.2,15,84.2s17.7-2,17.7-2s-2.8-107.6-22.8-116.5"/>
	<path class="st9_shopping-cart-60" d="M100.3,280.5c-0.9-2.4-1.2-5-1.1-7.6c-5,0.1-8.9-0.1-12.3-3.4c-1.6,3.2-5.3,6.9-5.7,9.5&#10;&#9;&#9;c-0.6,4.2,3.2,3.7,6.5,5.6c2.3,1.3,3.5,4.3,4.4,7c3.4,6.4,11.2,9.4,18.2,8c0.7-0.9,1.2-1.9,1.5-3&#10;&#9;&#9;C113.4,291.9,102,284.7,100.3,280.5z"/>
	<path class="st2_shopping-cart-60" d="M316.8,361.3l3.6-2c0.9-0.5,1.5-1.3,1.7-2.3c0.6-3.1,1-10-6.6-13l-3.8,2.3"/>
	<ellipse transform="matrix(0.866 -0.5 0.5 0.866 -134.8671 203.456)" class="st2_shopping-cart-60" cx="312.2" cy="353.4" rx="5.3" ry="9.1"/>
	<polygon class="st3_shopping-cart-60 targetColor" points="307.5,348 307.5,343.7 312.7,341.1 319.3,343.7 320.4,347.5 317.5,345.1 313.9,347.2 313.9,351.1 &#9;" style="fill: rgb(104, 225, 253);"/>
	<path class="st3_shopping-cart-60 targetColor" d="M307.5,348c0,0,0.8,7.6,3.6,8.1s3.3-5.3,2.9-6.5" style="fill: rgb(104, 225, 253);"/>
	<path class="st2_shopping-cart-60" d="M256.8,318.6l3.6-2c0.9-0.5,1.5-1.3,1.7-2.3c0.6-3.1,1-10-6.6-13l-3.8,2.3"/>
	<ellipse transform="matrix(0.866 -0.5 0.5 0.866 -121.5428 167.7596)" class="st2_shopping-cart-60" cx="252.3" cy="310.7" rx="5.3" ry="9.1"/>
	<polygon class="st3_shopping-cart-60 targetColor" points="247.6,305.3 247.6,301 252.7,298.4 259.3,301 260.4,304.8 257.5,302.4 254,304.5 254,308.4 &#9;" style="fill: rgb(104, 225, 253);"/>
	<path class="st3_shopping-cart-60 targetColor" d="M247.6,305.3c0,0,0.8,7.6,3.6,8.1s3.3-5.3,2.9-6.5" style="fill: rgb(104, 225, 253);"/>
	<path class="st2_shopping-cart-60" d="M189.5,356.5l3.6-2c0.9-0.5,1.5-1.3,1.8-2.3c0.6-3.1,1-10-6.6-13l-3.8,2.3"/>
	<ellipse transform="matrix(0.866 -0.5 0.5 0.866 -149.5452 139.1618)" class="st2_shopping-cart-60" cx="184.9" cy="348.6" rx="5.3" ry="9.1"/>
	<polygon class="st3_shopping-cart-60 targetColor" points="180.2,343.2 180.2,339 185.4,336.3 192,338.9 193.1,342.8 190.1,340.3 186.6,342.4 186.6,346.4 &#9;" style="fill: rgb(104, 225, 253);"/>
	<path class="st3_shopping-cart-60 targetColor" d="M180.2,343.2c0,0,0.8,7.6,3.6,8.1s3.3-5.3,2.9-6.5" style="fill: rgb(104, 225, 253);"/>
	<path class="st3_shopping-cart-60 targetColor" d="M175.7,285.6l64.7-36.7c0.9-0.6,1.8-1.1,2.8-1.6c-1.8,0.6-1.3-0.2,0.3,0.9c3.7,2.7,8.4,4.7,12.4,6.9l41.7,23.4&#10;&#9;&#9;l29,16.3c0.7,0.4,1.6,0.2,2-0.5c0.4-0.7,0.2-1.6-0.5-2l-67.9-38.1l-14.1-7.9c-1.8-1-2.6-1.8-4.6-1.3c-3.8,0.9-8.3,4.7-11.7,6.6&#10;&#9;&#9;l-21.1,12L174.2,283c-0.7,0.4-0.9,1.3-0.5,2C174.1,285.7,175,286,175.7,285.6L175.7,285.6z" style="fill: rgb(104, 225, 253);"/>
	<path class="st3_shopping-cart-60 targetColor" d="M188.4,236.7L196,297c0,0.8,0.7,1.5,1.5,1.5c0.2,0,0.5-0.1,0.7-0.2l66.3-39.1c0.7-0.4,0.9-1.3,0.5-2&#10;&#9;&#9;c-0.4-0.7-1.3-0.9-2-0.5l-66.3,39.1l2.2,1.3l-7.6-60.3C191.1,234.9,188.2,234.8,188.4,236.7L188.4,236.7z" style="fill: rgb(104, 225, 253);"/>
	<path class="st3_shopping-cart-60 targetColor" d="M331.8,266.5l-72.7-40.9l-16.9-9.5c-1.8-1-4.8-3.6-7-3.4c-2.6,0.2-6.8,3.7-9,5l-21.5,12.1L166.5,251&#10;&#9;&#9;c-0.7,0.4-0.9,1.3-0.5,2c0.1,0.2,0.3,0.4,0.5,0.5l72.9,39.9L257,303c1.7,0.9,4.6,3.4,6.7,3.4c2.6,0,6.9-3.6,9-4.8l21.5-11.8&#10;&#9;&#9;l37.7-20.8c1.7-0.9,0.2-3.5-1.5-2.5c-22.2,12.3-45.1,23.8-66.8,36.9c-1.2,0.7,1.6,0.9,0.2,0s-2.6-1.4-3.9-2.1l-15.5-8.5l-46.1-25.2&#10;&#9;&#9;L168,251v2.5l30.7-17.2l22.8-12.8c4.4-2.4,10-4.6,13.9-7.8c1.4-1.2-0.9-0.6-0.2-0.2c1.3,0.7,2.5,1.4,3.8,2.1l15.6,8.8l45.7,25.7&#10;&#9;&#9;l30,16.8c0.7,0.3,1.6,0,1.9-0.8C332.5,267.6,332.3,266.9,331.8,266.5z" style="fill: rgb(104, 225, 253);"/>
	<path class="st3_shopping-cart-60 targetColor" d="M225.1,161.9l-16.5-9.9c-0.5-0.3-1-0.3-1.5,0l-66.7,40.1c-0.7,0.4-0.9,1.3-0.5,2c0.1,0.2,0.3,0.4,0.5,0.5&#10;&#9;&#9;c4.5,2.5,11,4.7,14.7,8.3c0.5,0.5-0.6-1.4-0.1,0.1c0.3,1,0.4,2.1,0.7,3.1l6.3,28.9l17.9,82.8l2.9,13.6c0.3,1.6,0.4,4.3,1.2,5.7&#10;&#9;&#9;s2.1,1.8,3.6,2.5l12.9,6.7l38.5,20l15.5,8.1c1.7,0.9,4.4,3,6.3,3.3c2.6,0.4,5.9-2.6,8-3.9l18.7-11.1l30.8-18.4&#10;&#9;&#9;c0.7-0.4,0.9-1.4,0.5-2.1c-0.1-0.2-0.3-0.4-0.5-0.5l-36.1-25.4L260.6,301c-1.7-1.2-3.5-2.3-5.2-3.6c-1.5-1.2,0.1,1.3-0.4-0.7&#10;&#9;&#9;c-7.1-32.2-14.1-64.5-21.1-96.7l-8.1-37.3c-0.4-1.9-3.2-1.1-2.8,0.8l20.1,91.8c3,13.7,5.4,27.8,9,41.3c0.6,2.3,1.2,2.8,3.3,4.3&#10;&#9;&#9;l19.3,13.5l42.3,29.8v-2.5l-25.2,15.1l-18.2,10.9c-3.1,1.9-6.5,3.8-11.6,6.9c-1.4,0.9-0.6,0.2,0.2,0.5c-1.1-0.5-2.1-1-3.1-1.6&#10;&#9;&#9;l-13.4-7L208.1,347l-15.5-8.1c-1.5-0.8-3-1.7-4.5-2.4c-1.1-0.5-2-1.7-1.1,0c-0.7-1.2-0.7-3.4-1-4.8l-2.6-11.9l-17.5-81l-7.2-33.5&#10;&#9;&#9;c-0.3-1.6-0.4-3.5-1.5-4.7c-1.6-1.8-5.4-3-7.6-4.3l-7.6-4.2v2.5l44.8-26.9l12.7-7.6c2.4-1.4,6.2-2.8,8.1-4.8c0.9-1,1.8-0.1-0.2-0.6&#10;&#9;&#9;c1.6,0.4,3.4,2.1,4.9,2.9l11.5,6.9c0.7,0.3,1.6,0,2-0.7C225.9,163,225.7,162.3,225.1,161.9z" style="fill: rgb(104, 225, 253);"/>
	<path class="st3_shopping-cart-60 targetColor" d="M182.2,207.7l16.1,64.6c0.4,1.8,3.3,1.1,2.8-0.8L185,206.9C184.5,205.1,181.7,205.8,182.2,207.7L182.2,207.7z" style="fill: rgb(104, 225, 253);"/>
	<path class="st3_shopping-cart-60 targetColor" d="M205.1,194.7l15.8,63.2c0.5,1.8,3.3,1.1,2.8-0.8l-15.8-63.2C207.4,192.1,204.6,192.9,205.1,194.7L205.1,194.7z&#10;&#9;&#9;" style="fill: rgb(104, 225, 253);"/>
	<path class="st3_shopping-cart-60 targetColor" d="M218.7,307c20.9-12.9,41.8-25.9,63.2-38.1c0.7-0.4,0.9-1.3,0.5-2c-0.4-0.7-1.3-0.9-2-0.5&#10;&#9;&#9;c-21.4,12.1-42.2,25.2-63.2,38.1C215.6,305.5,217.1,308,218.7,307L218.7,307z" style="fill: rgb(104, 225, 253);"/>
	<path class="st3_shopping-cart-60 targetColor" d="M161.4,221.5l33.9-19.2l22.9-13l7.8-4.3c0.6-0.4,4.1-1.9,2.6-1.9s0.5,0.6,1.1,1c1.8,1.2,3.9,2.2,5.8,3.2&#10;&#9;&#9;l18.2,10.2l49.5,27.6l31,17.3c0.8,0.3,1.6-0.1,1.9-0.8c0.2-0.6,0.1-1.3-0.4-1.7l-77-42.9L238.9,186c-2.6-1.4-6.5-4.8-9.5-5.3&#10;&#9;&#9;c-2.5-0.5-5.1,1.9-7.3,3.1l-21,11.9L159.9,219c-0.7,0.4-0.9,1.3-0.5,2C159.8,221.7,160.7,221.9,161.4,221.5L161.4,221.5z" style="fill: rgb(104, 225, 253);"/>
	<path class="st3_shopping-cart-60 targetColor" d="M288.4,267.3l-8,52.1c-0.3,1.9,2.5,2.6,2.8,0.8l8-52.1C291.6,266.2,288.7,265.4,288.4,267.3z" style="fill: rgb(104, 225, 253);"/>
	<path class="st3_shopping-cart-60 targetColor" d="M311.2,254.1l-9,52.7c-0.3,1.9,2.5,2.6,2.8,0.8l9-52.7C314.4,253.1,311.5,252.3,311.2,254.1z" style="fill: rgb(104, 225, 253);"/>
	<path class="st3_shopping-cart-60 targetColor" d="M304.2,224.9v55.9c0.1,0.8,0.8,1.4,1.6,1.4c0.7-0.1,1.3-0.6,1.4-1.4v-55.9c-0.1-0.8-0.8-1.4-1.6-1.4&#10;&#9;&#9;C304.8,223.6,304.3,224.2,304.2,224.9z" style="fill: rgb(104, 225, 253);"/>
	<path class="st3_shopping-cart-60 targetColor" d="M280.3,211.6l1.5,57.3c0,1.9,3,1.9,2.9,0l-1.5-57.3C283.2,209.7,280.2,209.7,280.3,211.6z" style="fill: rgb(104, 225, 253);"/>
	<path class="st3_shopping-cart-60 targetColor" d="M257.1,198.6l7,60.3c0.2,1.9,3.2,1.9,2.9,0l-7-60.3C259.8,196.8,256.9,196.8,257.1,198.6L257.1,198.6z" style="fill: rgb(104, 225, 253);"/>
	<path class="st3_shopping-cart-60 targetColor" d="M214,251.4c0.2,18,0.2,36,0,54c0,0.8,0.7,1.5,1.5,1.5s1.5-0.7,1.5-1.5l0,0c0.3-18,0.3-36,0-54&#10;&#9;&#9;c0-0.8-0.7-1.5-1.5-1.5S214,250.6,214,251.4z" style="fill: rgb(104, 225, 253);"/>
	<path class="st3_shopping-cart-60 targetColor" d="M236.2,264.9v54.9c0,0.8,0.7,1.5,1.5,1.5c0.3,0,0.5-0.1,0.7-0.2l66-40.5c1.6-1,0.1-3.5-1.5-2.5L237,318.5&#10;&#9;&#9;l2.2,1.3v-54.9c0-0.8-0.7-1.5-1.5-1.5S236.3,264.1,236.2,264.9L236.2,264.9z" style="fill: rgb(104, 225, 253);"/>
	<path class="st3_shopping-cart-60 targetColor" d="M266,280.5l-7.4,51.5c-0.3,1.9,2.6,2.7,2.8,0.8l7.4-51.5C269.1,279.4,266.3,278.6,266,280.5L266,280.5z" style="fill: rgb(104, 225, 253);"/>
	<path class="st3_shopping-cart-60 targetColor" d="M159.9,221.5l77.1,43.7l20.2,11.5c2.6,1.5,6.4,4.8,9.4,5.3c2.4,0.4,4.6-1.7,6.6-2.9l20.9-12.3l41.6-24.4&#10;&#9;&#9;l-2.2-1.7l-7.1,48.2c-0.1,1.2-0.3,2.3-0.5,3.5c-0.3,1.4,0.9-0.6,0.3,0c-1.4,1.3-3.8,2.2-5.4,3.1l-24.5,14.1L270,324.9&#10;&#9;&#9;c-2.9,1.6-5.8,3.1-8.6,5c-0.6,0.4-1.2,0.7-1.8,1.1c-0.9,0.5,1.8,0.5,0.9,0c-13.8-6.8-27.1-15.3-40.4-23l-44.2-25&#10;&#9;&#9;c-1.6-0.9-3.1,1.6-1.5,2.5l38.5,21.8l28.2,16c5.6,3.1,11.4,7.5,17.3,9.8c3,1.1,4.7-0.8,7.5-2.4l25.1-14.5l27.1-15.7&#10;&#9;&#9;c2.8-1.6,9-3.7,10.6-6.7c1.2-2.4,1-6.7,1.4-9.3l2.6-17.4l3.8-25.5c0.2-0.8-0.3-1.6-1.1-1.8c-0.4-0.1-0.7,0-1.1,0.1l-33.8,19.8&#10;&#9;&#9;l-23.2,13.6l-7.3,4.3c-0.8,0.4-1.7,0.9-2.4,1.4c-1,0.9-1.3-0.1,0.6,0.5c-2.6-0.9-5.2-3-7.6-4.3l-19.1-10.8L193.2,237l-31.8-18&#10;&#9;&#9;c-0.7-0.4-1.6-0.1-2,0.6C159,220.3,159.2,221.1,159.9,221.5L159.9,221.5z" style="fill: rgb(104, 225, 253);"/>
	<path class="st2_shopping-cart-60" d="M146.8,188.4c0,0,1.5-0.9,2.3,0s0,2.1,0,2.1l-1.3,0.8c0,0,0.8,1.2,2.8,0.5s52-30.5,52-30.5s1.4-1.8,0.6-3.2&#10;&#9;&#9;s-2.2-3.2-4.8-2.6s-51.7,30.1-51.7,30.1S145.4,187.5,146.8,188.4z"/>
	<path class="st2_shopping-cart-60" d="M261.3,394.1l3.6-2c0.9-0.5,1.5-1.3,1.8-2.4c0.6-3.1,1-10-6.6-13l-3.8,2.3"/>
	
		<ellipse transform="matrix(0.867 -0.4983 0.4983 0.867 -158.9127 179.9884)" class="st2_shopping-cart-60" cx="257.7" cy="387.7" rx="5.3" ry="9.1"/>
	<polygon class="st3_shopping-cart-60 targetColor" points="252,380.8 252,376.5 257.2,373.8 263.8,376.5 264.9,380.3 262,377.8 258.4,380 258.4,383.9 &#9;" style="fill: rgb(104, 225, 253);"/>
	<path class="st3_shopping-cart-60 targetColor" d="M252,380.8c0,0,0.8,7.6,3.6,8.1c2.8,0.5,3.3-5.3,2.9-6.5" style="fill: rgb(104, 225, 253);"/>
	<path class="st8_shopping-cart-60" d="M190.7,161.7c-1.9-1.3-8.7-2.7-8.7-2.7s-18.6-19.6-21-22.6c-4.9-7.3-9.3-14.8-13.1-22.7&#10;&#9;&#9;c-4.8,2-5.3,4.2-10.1,6.1c2.9,9,10.6,21.1,12.2,23.3c1.9,2.8,26.7,21.8,26.7,21.8l2.7,3.5c0,0,3.9-1.5,3.4,5.5l-1.6,3.5&#10;&#9;&#9;c0,0,1.9,2.4,6.3,0s6-2.4,6-5.4S192.6,163.1,190.7,161.7z"/>
	<path class="st11_shopping-cart-60" d="M115.6,132.2l1.8,32.4c3.8,5.2,9.6,8.5,16,9.1c11,1.1,18.5-6.9,18.2-6.5c-0.3-4.7-0.3-9.5-0.1-14.2&#10;&#9;&#9;c0.5-9,2.6-18.4,0.7-27.3c-1-4.8-2.2-10.6-6.1-14c-1.4-1.2-3.4-2.9-5.4-3.1c-3.3-0.3-7,1.6-10,2.7c-6.5,2.5-12.9,5.6-17.8,10.7&#10;&#9;&#9;L115.6,132.2z"/>
	<path class="st8_shopping-cart-60" d="M117.2,118.4c0,0-6.1,2.3-6.1,10.6s11.4,26.4,13.3,29.2s26.7,21.8,26.7,21.8l2.7,3.5c0,0,3.9-1.5,3.4,5.5&#10;&#9;&#9;l-1.6,3.5c0,0,1.9,2.4,6.3,0s6-2.4,6-5.4s-0.9-9-2.8-10.3s-8.7-2.8-8.7-2.8s-18.7-19.5-21.1-22.5S125.8,118.1,117.2,118.4z"/>
	<path class="st12_shopping-cart-60" d="M126.8,102.6l1.4,12.8c0,0,2.6,3.7,9.9,2c1.2-0.3,2.1-1.3,2.1-2.6l0.6-9.5"/>
	<path class="st13_shopping-cart-60" d="M142.3,98.8c3.1-2.7,5-6.5,5.5-10.6c0.7-6.7-6.4-9.4-10.1-9.1c0,0,2.2,1.3,2.6,2.2c0,0-3.1-3.6-10.3-1.7&#10;&#9;&#9;s-0.5,2.7-0.5,2.7s-7.5-0.6-11.5,0.9s-5.9,3.5-5.2,4.2s2.3-0.1,3,0.3s-3.6,3.3-3.7,5.3s3.4,2.9,3.2,3.4s-4-1-4.1-0.3&#10;&#9;&#9;s7.8,15.2,19.3,13.8"/>
	<path class="st8_shopping-cart-60" d="M142.7,91.7c-0.1,0-0.2,0-0.4,0c-2.1,0.6-4.3,1-6.4,1.2c-2.2,0-4.4-0.3-6.5-0.2c-1.4,0-2.4,3.4-2.5,7.6&#10;&#9;&#9;c-0.9-0.6-2-0.9-2.8,0.2s-0.3,2.7,0.7,3.6c0.7,0.6,1.5,1.1,2.5,1.3c0.8,5.2,4.5,8.2,8.2,8.9c3.9,0.7,6.3-1.6,7.5-4.9&#10;&#9;&#9;c1.6-4.7,1.6-8.7,1.4-13.6c0-0.8,0-1.5-0.1-2.2c-0.1-0.7-0.5-1.3-1.1-1.6C142.9,91.7,142.8,91.7,142.7,91.7z"/>
	<path class="st13_shopping-cart-60" d="M141.9,90c0,0-8.3,11.4-14.3,10.3s0.9-9.9,0.9-9.9"/>
	<path class="st14_shopping-cart-60" d="M129.5,130.2c0,0-9-20.2-16.6-8.2s4.4,25.9,4.4,25.9l14.7-12.2L129.5,130.2z"/>
</g>
<g id="bag1_shopping-cart-60">
	
		<linearGradient id="SVGID_00000178173668911531482420000003449571922974347949_-shopping-cart-60" gradientUnits="userSpaceOnUse" x1="337.9378" y1="210.1665" x2="371.0078" y2="253.9465" gradientTransform="matrix(1 0 0 -1 0 502)">
		<stop offset="0" style="stop-color:#F15A24;stop-opacity:0"/>
		<stop offset="1" style="stop-color:#A0421D"/>
	</linearGradient>
	<path style="opacity:0.63;fill:url(#SVGID_00000178173668911531482420000003449571922974347949_);enable-background:new    ;" d="&#10;&#9;&#9;M362.5,246.4c-8,4-15.5,9.3-23.2,14c-6.5,3.9-13,7.9-19.6,11.6l28.1,16.5l44-24.1L362.5,246.4z"/>
	<path class="st2_shopping-cart-60" d="M380.5,191.5c9.9,0.7,9.4,16.6,10,23.2c0.2,1.7-2.4,2.2-2.6,0.5c-0.6-5.5-0.2-13-3.2-17.8c-1-1.5-2.1-3-4-3.1&#10;&#9;&#9;c-1.2,0-2.4,0.4-3.2,1.3c-0.9,0.8-1.3,3.9-1.5,4.8c-0.5,3.4-0.6,6.9-0.2,10.3c0.2,1.7-2.4,2.2-2.6,0.6&#10;&#9;&#9;C372.7,206.1,371.7,190.9,380.5,191.5z"/>
	<polyline class="st3_shopping-cart-60 targetColor" points="365.7,202.2 362.8,207.2 356.8,208.4 361.3,223.7 373.9,215.6 &#9;" style="fill: rgb(104, 225, 253);"/>
	<polyline class="st4_shopping-cart-60" points="365.7,202.2 362.8,207.2 356.8,208.4 361.3,223.7 373.9,215.6 &#9;"/>
	<polygon class="st3_shopping-cart-60 targetColor" points="396.1,219.1 365.7,202.2 366.7,227.2 390,229.4 &#9;" style="fill: rgb(104, 225, 253);"/>
	<polygon class="st5_shopping-cart-60" points="396.1,219.1 365.7,202.2 366.7,227.2 390,229.4 &#9;"/>
	<polygon class="st3_shopping-cart-60 targetColor" points="385.2,222.8 380.6,270 352.1,252.9 356.8,208.4 &#9;" style="fill: rgb(104, 225, 253);"/>
	<polygon class="st3_shopping-cart-60 targetColor" points="385.2,222.8 388.5,219.1 396.1,219.1 396.1,260.6 391.1,264.1 380.6,270 &#9;" style="fill: rgb(104, 225, 253);"/>
	<polygon class="st4_shopping-cart-60" points="385.2,222.8 388.5,219.1 396.1,219.1 396.1,260.6 391.1,264.1 380.6,270 &#9;"/>
	<path class="st2_shopping-cart-60" d="M367.8,199.4c9.9,0.1,10.3,16,11.4,22.6c0.3,1.6-2.3,2.4-2.5,0.7c-0.9-5.5-1-12.9-4.3-17.6&#10;&#9;&#9;c-1.4-1.9-3.8-3.5-6.1-2.3c-2.1,1.1-2.1,3.6-2.4,5.7c-0.3,3.4-0.2,6.9,0.5,10.3c0.3,1.6-2.2,2.4-2.5,0.7&#10;&#9;&#9;C360.9,214.4,359,199.4,367.8,199.4z"/>
</g>
</svg>