<svg version="1.1" id="Layer_1" xmlns="http://www.w3.org/2000/svg" xmlns:xlink="http://www.w3.org/1999/xlink" x="0px" y="0px" viewBox="0 0 500 500" style="width: 151px;" xml:space="preserve" data-imageid="order-confirmed-76" imageName="Order Confirmed" class="illustrations_image">
<style type="text/css">
	.st0_order-confirmed-76{fill:#FFFFFF;}
	.st1_order-confirmed-76{fill:#093F68;}
	.st2_order-confirmed-76{fill:#68E1FD;}
	.st3_order-confirmed-76{fill:#725858;}
	.st4_order-confirmed-76{fill:#FFC9B0;}
	.st5_order-confirmed-76{fill:#70CC40;}
</style>
<g id="device_order-confirmed-76">
	<path class="st0_order-confirmed-76" d="M224.2,72.9h148c4.6,0,10.4,5.7,10.4,10.4c0,0,0,271.4,0,271.4c0,4.6-5.7,10.4-10.4,10.4c0,0-148,0-148,0&#10;&#9;&#9;c-4.6,0-10.4-6.7-10.4-11.4c0,0,0-270.3,0-270.3C213.8,78.7,219.5,72.9,224.2,72.9z"/>
	<path class="st1_order-confirmed-76" d="M367.3,367H229.2c-9.5,0-17.2-7.7-17.2-17.2V88.3c0-9.5,7.7-17.2,17.2-17.2h138.1c9.5,0,17.2,7.7,17.2,17.2&#10;&#9;&#9;v261.6C384.5,359.4,376.7,367,367.3,367z M229.2,74.8c-7.4,0-13.5,6-13.5,13.4c0,0,0,0.1,0,0.1v261.6c0,7.5,6,13.5,13.5,13.5h138.1&#10;&#9;&#9;c7.5,0,13.5-6,13.5-13.5V88.3c0-7.5-6-13.5-13.5-13.5H229.2z"/>
	<circle class="st0_order-confirmed-76" cx="297.3" cy="343.5" r="10.3"/>
	<path class="st1_order-confirmed-76" d="M297.3,355.7c-6.7,0-12.2-5.4-12.2-12.1s5.4-12.2,12.1-12.2c6.7,0,12.2,5.4,12.2,12.1l0,0&#10;&#9;&#9;C309.4,350.2,304,355.6,297.3,355.7z M297.3,335c-4.7,0-8.5,3.8-8.5,8.5s3.8,8.5,8.5,8.5s8.5-3.8,8.5-8.5l0,0&#10;&#9;&#9;C305.8,338.8,302,335,297.3,335C297.3,335,297.3,335,297.3,335z"/>
	<rect x="213.8" y="95.3" class="st2_order-confirmed-76 targetColor" width="168.8" height="227.6" style="fill: rgb(104, 225, 253);"/>
	<path class="st1_order-confirmed-76" d="M382.6,324.7H213.8c-1,0-1.8-0.8-1.8-1.8c0,0,0,0,0,0l0,0V95.3c0-1,0.8-1.8,1.8-1.8c0,0,0,0,0,0h168.8&#10;&#9;&#9;c1,0,1.8,0.8,1.8,1.8c0,0,0,0,0,0l0,0v227.6c0.1,0.9-0.6,1.7-1.6,1.8C382.7,324.7,382.7,324.7,382.6,324.7L382.6,324.7z&#10;&#9;&#9; M215.6,321.1h165.2v-224H215.6V321.1z"/>
	<path class="st1_order-confirmed-76" d="M289.8,86.3h-3.4c-1,0.1-2-0.6-2.1-1.6c-0.1-1,0.6-2,1.6-2.1c0.1,0,0.2,0,0.2,0h3.7c1,0.1,1.8,1,1.7,2&#10;&#9;&#9;C291.4,85.5,290.7,86.2,289.8,86.3L289.8,86.3z"/>
	<path class="st1_order-confirmed-76" d="M310.1,86.3h-15.5c-1-0.1-1.8-1-1.7-2c0.1-0.9,0.8-1.6,1.7-1.7h15.5c1,0.1,1.8,1,1.7,2&#10;&#9;&#9;C311.7,85.5,311,86.2,310.1,86.3z"/>
</g>
<g id="cart_order-confirmed-76">
	<path class="st0_order-confirmed-76" d="M349.2,205.2c-1.5,0-2.8-1-3.2-2.4l-9.9-35c-1.2-4.6-5.3-7.8-10-7.9h-51.6c-4.7,0.1-8.8,3.3-10,7.9l-9.9,35&#10;&#9;&#9;c-0.5,1.8-2.3,2.8-4.1,2.3c-1.8-0.5-2.8-2.3-2.3-4.1c0,0,0-0.1,0-0.1l0,0l9.8-35c2-7.4,8.7-12.7,16.4-12.8h51.6&#10;&#9;&#9;c7.7,0.1,14.4,5.3,16.5,12.7l9.9,35c0.5,1.7-0.6,3.6-2.3,4.1C349.8,205.1,349.5,205.2,349.2,205.2z"/>
	<path class="st1_order-confirmed-76" d="M349.2,206c-1.9,0-3.5-1.2-4-3l-9.9-35c-1.1-4.2-4.9-7.2-9.3-7.3h-51.5c-4.4,0.1-8.2,3.1-9.3,7.3l-9.8,35&#10;&#9;&#9;c-0.6,2.2-2.9,3.5-5.1,2.9c-2.1-0.6-3.4-2.8-2.9-4.9c0-0.1,0-0.1,0-0.2l9.9-35c2.1-7.8,9.2-13.2,17.2-13.3H326&#10;&#9;&#9;c8.1,0.1,15.1,5.5,17.2,13.3l9.9,35c0.6,2.2-0.6,4.4-2.8,5.1c0,0,0,0-0.1,0l0,0C349.9,206,349.5,206,349.2,206z M274.5,159.1h51.6&#10;&#9;&#9;c5.1,0.1,9.5,3.5,10.8,8.5l9.9,35c0.4,1.3,1.7,2.1,3.1,1.8c0,0,0,0,0,0c1.3-0.3,2.1-1.7,1.8-3c0,0,0-0.1,0-0.1l-9.9-35&#10;&#9;&#9;c-1.9-7.1-8.3-12.1-15.7-12.2h-51.5c-7.4,0.1-13.8,5-15.7,12.1l-9.9,35c-0.4,1.3,0.3,2.8,1.6,3.2c1.3,0.4,2.7-0.3,3.2-1.6&#10;&#9;&#9;c0,0,0,0,0-0.1c0-0.1,0-0.1,0-0.2l9.8-35C265,162.6,269.4,159.1,274.5,159.1L274.5,159.1z"/>
	<path class="st2_order-confirmed-76 targetColor" d="M343.2,277.3h-85.9c-3.4,0-6.3-2.5-6.7-5.9l-8-62.9h115.3l-8,62.9C349.5,274.7,346.6,277.3,343.2,277.3z" style="fill: rgb(104, 225, 253);"/>
	<path class="st1_order-confirmed-76" d="M343.2,278.8h-85.9c-4.2,0-7.7-3.1-8.2-7.2l-8-62.9c-0.1-0.8,0.5-1.6,1.3-1.7c0.1,0,0.1,0,0.2,0h115.3&#10;&#9;&#9;c0.4,0,0.8,0.2,1.1,0.5c0.3,0.3,0.4,0.8,0.4,1.2l-8,62.9C350.9,275.7,347.4,278.8,343.2,278.8z M244.4,210l7.8,61.2&#10;&#9;&#9;c0.3,2.7,2.6,4.6,5.3,4.6h85.9c2.7,0,4.9-2,5.2-4.6l7.8-61.2H244.4z"/>
	<path class="st2_order-confirmed-76 targetColor" d="M240.8,200.2h119.1c3.1,0,5.6,2.5,5.6,5.6v2.7c0,3.1-2.5,5.6-5.6,5.6H240.8c-3.1,0-5.6-2.5-5.6-5.6v-2.7&#10;&#9;&#9;C235.1,202.7,237.6,200.2,240.8,200.2z" style="fill: rgb(104, 225, 253);"/>
	<path class="st1_order-confirmed-76" d="M359.9,215.7H240.8c-3.9,0-7.1-3.2-7.1-7.1v-2.7c0-3.9,3.2-7.1,7.1-7.1c0,0,0,0,0,0h119.1&#10;&#9;&#9;c3.9,0,7.1,3.2,7.1,7.1v2.7C367,212.5,363.8,215.7,359.9,215.7z M240.8,201.7c-2.3,0-4.1,1.9-4.1,4.1c0,0,0,0,0,0v2.7&#10;&#9;&#9;c0,2.3,1.9,4.1,4.1,4.1h119.1c2.3,0,4.1-1.8,4.1-4.1c0,0,0,0,0,0v-2.7c0-2.3-1.8-4.1-4.1-4.1c0,0,0,0,0,0L240.8,201.7z"/>
	<path class="st1_order-confirmed-76" d="M264.6,219.2h5.1c1.5,0,2.6,1.2,2.7,2.6c0,0,0,0,0,0v43.4c0,1.5-1.2,2.7-2.6,2.7c0,0,0,0,0,0h-5.1&#10;&#9;&#9;c-1.5,0-2.7-1.2-2.7-2.7l0,0v-43.5C261.9,220.4,263.1,219.2,264.6,219.2z"/>
	<path class="st1_order-confirmed-76" d="M267.1,268.8c-3.3,0-6-2.7-6-6v-38.3c-0.4-3.3,1.9-6.3,5.2-6.7c3.3-0.4,6.3,1.9,6.7,5.2c0.1,0.4,0.1,0.8,0,1.3&#10;&#9;&#9;v38.7C273,266.1,270.4,268.7,267.1,268.8z M267.1,220c-2.4,0-4.4,2-4.4,4.4v38.4c0,2.4,2,4.4,4.4,4.3c2.3,0,4.2-1.8,4.3-4.1v-38.6&#10;&#9;&#9;C271.5,221.9,269.5,220,267.1,220z"/>
	<path class="st1_order-confirmed-76" d="M286.7,219.2h5.1c1.5,0,2.6,1.2,2.7,2.6c0,0,0,0,0,0v43.4c0,1.5-1.2,2.7-2.6,2.7c0,0,0,0,0,0h-5.1&#10;&#9;&#9;c-1.5,0-2.7-1.2-2.7-2.7l0,0v-43.5C284.1,220.4,285.3,219.2,286.7,219.2z"/>
	<path class="st1_order-confirmed-76" d="M289.2,268.8c-3.3,0-6-2.7-6-6v-38.3c0.3-3.3,3.1-5.8,6.4-5.5c2.8,0.2,5.1,2.4,5.5,5.2v38.7&#10;&#9;&#9;C295.1,266.1,292.5,268.7,289.2,268.8z M289.2,220c-2.4,0-4.4,2-4.4,4.4v38.4c0,2.4,2,4.4,4.4,4.3c2.3,0,4.2-1.8,4.3-4.1v-38.6&#10;&#9;&#9;C293.6,221.9,291.7,220,289.2,220z"/>
	<path class="st1_order-confirmed-76" d="M308.8,219.2h5.1c1.5,0,2.7,1.2,2.7,2.6c0,0,0,0,0,0v43.4c0,1.5-1.2,2.7-2.7,2.7l0,0h-5.1&#10;&#9;&#9;c-1.5,0-2.7-1.2-2.7-2.7l0,0v-43.5C306.2,220.4,307.4,219.2,308.8,219.2z"/>
	<path class="st1_order-confirmed-76" d="M311.4,268.8c-3.3,0-6-2.7-6-6v-38.3c0.2-3.3,3.1-5.8,6.4-5.6c2.9,0.2,5.2,2.4,5.5,5.2v38.7&#10;&#9;&#9;C317.3,266.1,314.6,268.7,311.4,268.8z M311.4,220c-2.4,0-4.4,2-4.4,4.4v38.4c-0.1,2.4,1.8,4.4,4.2,4.5s4.4-1.8,4.5-4.2v-38.7&#10;&#9;&#9;C315.7,221.9,313.8,220,311.4,220z"/>
	<path class="st1_order-confirmed-76" d="M331,219.2h5c1.5,0,2.7,1.2,2.7,2.6c0,0,0,0,0,0v43.4c0,1.5-1.2,2.7-2.6,2.7c0,0,0,0,0,0h-5&#10;&#9;&#9;c-1.5,0-2.6-1.2-2.7-2.6c0,0,0,0,0,0v-43.5C328.4,220.4,329.5,219.2,331,219.2C331,219.2,331,219.2,331,219.2z"/>
	<path class="st1_order-confirmed-76" d="M333.5,268.8c-3.3,0-6-2.7-6-6v-38.3c0.3-3.3,3.1-5.8,6.4-5.5c2.8,0.2,5.1,2.4,5.5,5.2v38.7&#10;&#9;&#9;C339.4,266.1,336.8,268.7,333.5,268.8z M333.5,220c-2.4,0-4.4,2-4.4,4.4v38.4c-0.1,2.4,1.8,4.4,4.2,4.5s4.4-1.8,4.5-4.2v-38.6&#10;&#9;&#9;C337.9,221.9,335.9,220,333.5,220z"/>
	<path class="st2_order-confirmed-76 targetColor" d="M284.2,150.9h32.2c2.9,0,5.2,2.3,5.2,5.2c0,0,0,0,0,0v1.1c0,2.9-2.3,5.2-5.2,5.2c0,0,0,0,0,0h-32.1&#10;&#9;&#9;c-2.9,0-5.2-2.3-5.2-5.2c0,0,0,0,0,0v-1.1C279,153.2,281.4,150.9,284.2,150.9C284.2,150.9,284.2,150.9,284.2,150.9z" style="fill: rgb(104, 225, 253);"/>
	<path class="st1_order-confirmed-76" d="M316.4,163.9h-32.1c-3.7,0-6.7-3-6.7-6.7v-1.1c0-3.7,3-6.7,6.7-6.7h32.2c3.7,0,6.7,3,6.7,6.7v1.1&#10;&#9;&#9;C323.1,160.9,320.1,163.9,316.4,163.9z M284.2,152.4c-2,0-3.7,1.7-3.7,3.7v1.1c0,2.1,1.7,3.7,3.7,3.7l0,0h32.1&#10;&#9;&#9;c2.1,0,3.7-1.7,3.7-3.7v-1.1c0-2.1-1.7-3.7-3.7-3.7H284.2z"/>
</g>
<g id="character_order-confirmed-76">
	<path class="st2_order-confirmed-76 targetColor" d="M239,410.8c0,0-18.3-38.5-33.2-58.6c-4.5-7.4-12.5-11.8-21.1-11.6H152c-12.9,0-19.5,10.5-19.5,10.5&#10;&#9;&#9;c-14.9,20-34.9,59.6-34.9,59.6l36.9,2.5v28.2h67.6v-28.2L239,410.8z" style="fill: rgb(104, 225, 253);"/>
	<path class="st1_order-confirmed-76" d="M202.1,443.2h-67.6c-1,0-1.7-0.8-1.7-1.7c0,0,0,0,0,0v-26.6l-35.3-2.4c-1-0.1-1.7-0.9-1.6-1.9&#10;&#9;&#9;c0-0.2,0.1-0.4,0.2-0.6c0.2-0.4,20.2-40,35-59.9c0.2-0.4,7.3-11.2,20.9-11.2h32.6c15.3,0,21.8,11,22.6,12.4&#10;&#9;&#9;c14.9,20,33.2,58.4,33.4,58.8c0.2,0.5,0.2,1.1-0.1,1.6c-0.3,0.5-0.8,0.8-1.4,0.9l-35.2,2.4v26.6&#10;&#9;&#9;C203.8,442.4,203.1,443.2,202.1,443.2z M136.3,439.7h64.1v-26.5c0-0.9,0.7-1.7,1.6-1.7l34.3-2.3c-4.2-8.6-19.4-39.1-32-56&#10;&#9;&#9;c-0.1-0.1-0.1-0.1-0.1-0.2c-0.2-0.4-5.8-10.7-19.6-10.7H152c-11.7,0-18,9.6-18.1,9.7c-12.7,17-29.1,48.4-33.6,57.1l34.2,2.3&#10;&#9;&#9;c0.9,0.1,1.6,0.8,1.6,1.7L136.3,439.7z"/>
	<path class="st2_order-confirmed-76 targetColor" d="M188.2,391.5c-0.3,1-1.6,23.7-1.6,23.7s29.8,16.3,40.9,17.6c8.6,1,21.2-19,6.5-26.2&#10;&#9;&#9;C228,403.6,188.2,391.5,188.2,391.5z" style="fill: rgb(104, 225, 253);"/>
	<path class="st1_order-confirmed-76" d="M228.2,434.7c-0.3,0-0.6,0-0.9,0c-11.3-1.4-40.3-17.2-41.6-17.9c-0.6-0.3-0.9-0.9-0.9-1.6&#10;&#9;&#9;c0.8-15.2,1.4-23.4,1.7-24.2c0.3-0.9,1.3-1.4,2.2-1.1c1.6,0.5,40,12.2,46.1,15.2c6.5,3.2,9.1,9.4,7,16.5&#10;&#9;&#9;C240,428,234,434.7,228.2,434.7z M188.4,414.2c5.2,2.8,29.8,15.8,39.3,16.9c3.8,0.5,9-4.6,10.7-10.5c0.9-3.2,1.6-9.1-5.2-12.4&#10;&#9;&#9;c-5.1-2.5-35.4-11.9-43.6-14.4C189.4,397.9,188.8,407.4,188.4,414.2z"/>
	<polygon class="st0_order-confirmed-76" points="160.9,342 170.4,400.7 180,342 &#9;"/>
	<path class="st1_order-confirmed-76" d="M170.4,402.5c-0.9,0-1.6-0.6-1.7-1.5l-9.6-58.7c-0.1-0.5,0.1-1,0.4-1.4c0.3-0.4,0.8-0.6,1.3-0.6H180&#10;&#9;&#9;c1,0,1.7,0.8,1.7,1.7c0,0.1,0,0.2,0,0.3l-9.5,58.7C172,401.8,171.3,402.5,170.4,402.5z M163,343.8l7.5,46.1l7.5-46.1H163z"/>
	<path class="st1_order-confirmed-76" d="M166,371.4H184c3.8,0,6.9,3.1,6.9,6.9v33.8c0,3.8-3.1,6.9-6.9,6.9H166c-3.8,0-6.9-3.1-6.9-6.9v-33.8&#10;&#9;&#9;C159.1,374.5,162.2,371.4,166,371.4z"/>
	<ellipse class="st3_order-confirmed-76" cx="119.6" cy="203" rx="45.8" ry="46"/>
	<path class="st1_order-confirmed-76" d="M119.6,250.8c-26.4,0.1-47.8-21.2-47.9-47.6s21.2-47.8,47.6-47.9s47.8,21.2,47.9,47.6c0,0,0,0.1,0,0.1&#10;&#9;&#9;C167.2,229.3,145.9,250.7,119.6,250.8z M119.6,158.8c-24.4-0.1-44.3,19.7-44.4,44.1c-0.1,24.4,19.7,44.3,44.1,44.4&#10;&#9;&#9;c24.4,0.1,44.3-19.7,44.4-44.1c0-0.1,0-0.1,0-0.2C163.7,178.6,143.9,158.9,119.6,158.8L119.6,158.8z"/>
	<path class="st3_order-confirmed-76" d="M168.3,176.6L168.3,176.6c36.4,0,65.8,29.5,65.8,65.8v44.2l0,0H102.5l0,0v-44.2&#10;&#9;&#9;C102.5,206.1,132,176.6,168.3,176.6z"/>
	<path class="st1_order-confirmed-76" d="M234.2,288.4H102.5c-1,0-1.7-0.8-1.7-1.7c0,0,0,0,0,0v-44.2c0-37.3,30.2-67.6,67.5-67.6s67.6,30.2,67.6,67.5&#10;&#9;&#9;c0,0,0,0,0,0.1v44.2C235.9,287.6,235.1,288.4,234.2,288.4C234.2,288.4,234.2,288.4,234.2,288.4z M104.2,284.9h128.2v-42.4&#10;&#9;&#9;c0-35.4-28.7-64.1-64.1-64.1s-64.1,28.7-64.1,64.1c0,0,0,0,0,0L104.2,284.9z"/>
	<path class="st4_order-confirmed-76" d="M160.9,331H180l0,0v14.5c0,2.6-2.1,4.7-4.7,4.7l0,0h-9.8c-2.6,0-4.7-2.1-4.7-4.7l0,0L160.9,331L160.9,331z"/>
	<path class="st1_order-confirmed-76" d="M171.9,351.9H169c-5.5,0-9.9-4.4-9.9-9.9v-11c0-1,0.8-1.8,1.8-1.8H180c1,0,1.8,0.8,1.8,1.8v11&#10;&#9;&#9;C181.8,347.5,177.4,351.9,171.9,351.9C171.9,351.9,171.9,351.9,171.9,351.9z M162.6,332.7v9.3c0,3.5,2.9,6.4,6.4,6.4h2.9&#10;&#9;&#9;c3.5,0,6.4-2.9,6.4-6.4v-9.3L162.6,332.7z"/>
	<ellipse class="st4_order-confirmed-76" cx="115.8" cy="281.2" rx="18.6" ry="16"/>
	<path class="st1_order-confirmed-76" d="M115.8,299c-11.2,0-20.3-8-20.3-17.8s9.1-17.8,20.3-17.8s20.3,8,20.3,17.8S127,299,115.8,299z M115.8,266.9&#10;&#9;&#9;c-9.3,0-16.8,6.4-16.8,14.3s7.6,14.3,16.8,14.3s16.8-6.4,16.8-14.3S125.1,266.9,115.8,266.9L115.8,266.9z"/>
	<ellipse class="st4_order-confirmed-76" cx="224.1" cy="281.2" rx="18.6" ry="16"/>
	<path class="st1_order-confirmed-76" d="M224.1,299c-11.2,0-20.3-8-20.3-17.8s9.1-17.8,20.3-17.8s20.3,8,20.3,17.8S235.3,299,224.1,299z M224.1,266.9&#10;&#9;&#9;c-9.3,0-16.8,6.4-16.8,14.3s7.6,14.3,16.8,14.3s16.8-6.4,16.8-14.3S233.4,266.9,224.1,266.9L224.1,266.9z"/>
	<path class="st4_order-confirmed-76" d="M170.4,333.5L170.4,333.5c-31-0.1-56-25.2-56-56.2v-26c0-13.5,20.6-38.7,34-38.7c0,0,2.2,12.8,23.4,23.9&#10;&#9;&#9;c14.8,7.8,35.7,8.3,54.7-4.9v45.7C226.5,308.3,201.4,333.5,170.4,333.5z"/>
	<path class="st1_order-confirmed-76" d="M170.4,335.3c-31.9-0.1-57.8-26-57.8-57.9v-26c0-14.3,21-40.5,35.8-40.5c0.9,0,1.6,0.6,1.7,1.4&#10;&#9;&#9;c0,0.1,2.4,12.1,22.4,22.7c12.6,6.7,33.2,8.9,52.9-4.8c0.8-0.6,1.9-0.4,2.4,0.4c0.2,0.3,0.3,0.6,0.3,1v45.7&#10;&#9;&#9;C228.2,309.3,202.4,335.2,170.4,335.3z M147.1,214.5c-11.2,1.6-31,22.9-31,36.9v26c-0.4,30,23.6,54.6,53.5,55s54.6-23.6,55-53.5&#10;&#9;&#9;c0-0.5,0-1,0-1.5v-42.5c-20.1,12.6-40.7,10.1-53.7,3.2C153.4,228.8,148.4,218.3,147.1,214.5L147.1,214.5z"/>
	<ellipse class="st1_order-confirmed-76" cx="145" cy="276.7" rx="5.2" ry="5.2"/>
	<ellipse class="st1_order-confirmed-76" cx="194.2" cy="276.5" rx="5.2" ry="5.2"/>
	<path class="st0_order-confirmed-76" d="M190.9,294.3c0.2,11.3-8.7,20.6-20,20.9c-11.3,0.2-20.6-8.7-20.9-20c0-0.3,0-0.6,0-0.9H190.9z"/>
	<path class="st1_order-confirmed-76" d="M170.4,316.5c-12.3,0-22.2-10-22.2-22.2c0-1,0.8-1.7,1.7-1.7c0,0,0,0,0,0h40.9c1,0,1.7,0.8,1.8,1.7&#10;&#9;&#9;C192.6,306.5,182.7,316.5,170.4,316.5z M151.8,296c0.9,10.3,10,17.9,20.3,16.9c9-0.8,16.1-7.9,16.9-16.9H151.8z"/>
	<path class="st1_order-confirmed-76" d="M170.2,288.4c-1.7,0-3.4-0.1-5.1-0.4c-0.9-0.2-1.6-1.1-1.4-2c0.2-0.9,1.1-1.6,2-1.4c2.5,0.4,5,0.5,7.6,0.1&#10;&#9;&#9;c0.2-1.6-1.7-7-4.4-12.1c-0.4-0.9-0.1-1.9,0.7-2.3c0.9-0.4,1.9-0.1,2.3,0.7c1.8,3.5,5.9,12,4.4,15.4c-0.4,0.8-1.1,1.5-2,1.7&#10;&#9;&#9;C173,288.3,171.6,288.4,170.2,288.4z"/>
	<path class="st1_order-confirmed-76" d="M130.4,256.8c-1.9,0-3.5-1.6-3.5-3.5s1.6-3.5,3.5-3.5l24.7-0.3c1.9,0,3.5,1.5,3.5,3.5s-1.5,3.5-3.5,3.5&#10;&#9;&#9;L130.4,256.8L130.4,256.8z"/>
	<path class="st1_order-confirmed-76" d="M212.8,256.3L212.8,256.3l-24.8-0.2c-1.9,0-3.5-1.6-3.5-3.5s1.6-3.5,3.5-3.5l24.7,0.2c1.9,0,3.5,1.6,3.5,3.5&#10;&#9;&#9;S214.7,256.3,212.8,256.3L212.8,256.3z"/>
	<path class="st4_order-confirmed-76" d="M163.9,411.6l2.4,0.3c3.6,0.4,7.6,0.6,10.6-1.4c1.6-1.2,3-2.7,4-4.4c1.4-2.2,2.5-4.7,2.1-7.2&#10;&#9;&#9;c-0.3-0.9-0.4-1.8-0.5-2.8c0.1-1.8,1.6-3.4,1.1-5.1c-0.5-1.3-1.8-2.1-3.2-2.1c-1.4,0.1-2.7,0.4-4,1c-4.1,1.3-8.5,1.6-12.8,0.8&#10;&#9;&#9;c-0.7-0.1-1.4-0.4-2-0.8c-1.2-1.1-0.7-3.2-1.3-4.8c-0.1-0.3-0.2-0.5-0.4-0.7c-0.5-0.3-1.1-0.2-1.5,0.2c-0.4,0.4-0.6,0.9-0.8,1.4&#10;&#9;&#9;c-0.9,2.2-1.4,5.1-3.2,6.8c-1.4,1.1-2.9,2-4.5,2.8c-2.4,1.3-4.9,2.5-7.4,3.6l7.5,14.8c2.1-0.9,4.2-1.7,6.4-2.3&#10;&#9;&#9;C158.8,411.2,161.4,411.2,163.9,411.6z"/>
	<path class="st1_order-confirmed-76" d="M150,415.4c-0.6,0-1.1-0.3-1.3-0.8l-7.4-14.8c-0.3-0.8,0-1.7,0.7-2c2.6-1.1,5-2.3,7.3-3.5l0.5-0.3&#10;&#9;&#9;c1.3-0.6,2.5-1.4,3.7-2.3c1.1-1,1.6-2.7,2.2-4.4c0.2-0.6,0.4-1.2,0.6-1.8c0.2-0.8,0.6-1.4,1.2-2c0.9-0.9,2.3-1,3.4-0.3&#10;&#9;&#9;c0.5,0.4,0.8,0.9,1,1.4c0.2,0.7,0.3,1.5,0.4,2.2c0,0.7,0.1,1.3,0.5,1.9c0.4,0.2,0.8,0.4,1.2,0.4c4,0.8,8.1,0.5,12-0.7l0.6-0.2&#10;&#9;&#9;c1.2-0.5,2.5-0.8,3.8-0.8h0.1c2.1-0.1,4,1.2,4.6,3.2c0.3,1.3,0.1,2.7-0.6,3.9c-0.3,0.5-0.4,1.1-0.5,1.7c0,0.5,0.1,1,0.2,1.4&#10;&#9;&#9;c0.1,0.4,0.2,0.7,0.2,1.1c0.5,3.3-1.1,6.2-2.3,8.2c-1.1,1.9-2.7,3.6-4.5,4.9c-3.5,2.2-7.8,2.1-11.6,1.6l-1.1-0.1l-1.3-0.2l0,0&#10;&#9;&#9;c-2.3-0.4-4.7-0.4-7,0c-1.6,0.4-3.1,0.9-4.5,1.6l-1.6,0.6C150.4,415.3,150.2,415.4,150,415.4z M144.6,399.8l6.1,12.2l0.3-0.1&#10;&#9;&#9;c1.6-0.7,3.3-1.3,5-1.7c2.6-0.5,5.3-0.5,8-0.1l1.3,0.2l1,0.1c3.2,0.4,6.9,0.6,9.6-1.2c1.5-1,2.7-2.4,3.6-4c1.6-2.5,2.2-4.4,1.9-6.1&#10;&#9;&#9;c-0.1-0.3-0.1-0.6-0.2-0.8c-0.2-0.7-0.3-1.5-0.2-2.3c0.1-0.9,0.3-1.8,0.7-2.7c0.3-0.6,0.5-1.3,0.4-2c-0.3-0.7-1-1-1.8-1&#10;&#9;&#9;c-1,0.1-1.9,0.3-2.9,0.7l-0.6,0.2c-4.4,1.4-9,1.7-13.5,0.8c-1-0.1-1.9-0.5-2.7-1.2c-1-1-1.5-2.4-1.4-3.8c0-0.3,0-0.5-0.1-0.8&#10;&#9;&#9;c0,0.1,0,0.1-0.1,0.2c-0.2,0.5-0.4,1.1-0.6,1.7c-0.6,2-1.4,4.2-3.1,5.7c-1.3,1.1-2.7,2-4.3,2.7l-0.5,0.3&#10;&#9;&#9;C148.8,397.9,146.8,398.9,144.6,399.8L144.6,399.8z"/>
	<path class="st2_order-confirmed-76 targetColor" d="M148.4,391.5c0.3,1,1.6,23.7,1.6,23.7s-29.8,16.3-40.9,17.6c-8.7,1-21.2-19-6.5-26.2&#10;&#9;&#9;C108.7,403.6,148.4,391.5,148.4,391.5z" style="fill: rgb(104, 225, 253);"/>
	<path class="st1_order-confirmed-76" d="M108.4,434.7c-5.8,0-11.7-6.6-13.6-13c-2.1-7.1,0.5-13.3,7-16.5c6.2-3,44.5-14.7,46.1-15.2&#10;&#9;&#9;c0.9-0.3,1.9,0.2,2.2,1.1c0.3,0.8,0.8,8.9,1.7,24.2c0,0.7-0.3,1.3-0.9,1.6c-1.2,0.7-30.2,16.5-41.6,17.9&#10;&#9;&#9;C109,434.7,108.7,434.7,108.4,434.7z M146.9,393.8c-8.1,2.5-38.5,11.9-43.6,14.4c-6.8,3.3-6.2,9.2-5.2,12.4c1.8,5.9,7,11,10.7,10.5&#10;&#9;&#9;c9.5-1.2,34.1-14.2,39.3-16.9C147.8,407.4,147.3,397.9,146.9,393.8L146.9,393.8z"/>
	<path class="st1_order-confirmed-76" d="M134.4,397.6c-0.7,0-1.3-0.4-1.6-1.1c-0.2-0.5-5.2-12.6-1-20.5c2.5-4.6,5.3-8.9,8.6-12.9&#10;&#9;&#9;c0.6-0.7,1.7-0.8,2.5-0.2c0.7,0.6,0.8,1.7,0.2,2.5l0,0c-3.1,3.8-5.8,8-8.2,12.3c-3.4,6.4,1.1,17.4,1.2,17.5c0.4,0.9,0,1.9-0.9,2.3&#10;&#9;&#9;c0,0,0,0,0,0C134.9,397.6,134.6,397.6,134.4,397.6z"/>
	<path class="st1_order-confirmed-76" d="M204.7,397.6c-0.2,0-0.5-0.1-0.7-0.1c-0.9-0.4-1.3-1.4-0.9-2.3c0-0.1,4.6-11.1,1.2-17.5&#10;&#9;&#9;c-2.3-4.4-5.1-8.5-8.2-12.3c-0.6-0.8-0.4-1.9,0.4-2.4c0.7-0.5,1.7-0.4,2.3,0.2c3.3,4,6.2,8.3,8.6,12.9c4.2,7.9-0.8,20-1,20.5&#10;&#9;&#9;C206.1,397.2,205.4,397.6,204.7,397.6z"/>
	<circle class="st0_order-confirmed-76" cx="181.4" cy="380.5" r="3.3"/>
</g>
<g id="check-mark_order-confirmed-76">
	<circle class="st0_order-confirmed-76" cx="378" cy="276.7" r="49.3"/>
	<path class="st1_order-confirmed-76" d="M378,327.4c-28,0-50.7-22.7-50.7-50.7S350,226,378,226c28,0,50.7,22.7,50.7,50.7c0,0,0,0,0,0l0,0&#10;&#9;&#9;C428.6,304.7,406,327.4,378,327.4z M378,228.8c-26.5,0-47.9,21.5-47.9,47.9s21.5,47.9,47.9,47.9s47.9-21.5,47.9-47.9&#10;&#9;&#9;C425.9,250.3,404.5,228.8,378,228.8C378,228.8,378,228.8,378,228.8z"/>
	<path class="st5_order-confirmed-76" d="M364.8,303l-19.6-21.6c-1.5-1.6-1.4-4.1,0.2-5.7c0,0,0.1-0.1,0.1-0.1l0,0l5.5-5c1.6-1.5,4.1-1.4,5.7,0.2&#10;&#9;&#9;c0,0,0.1,0.1,0.1,0.1l0,0l11.8,13l32.6-30.2c1.6-1.5,4.1-1.5,5.7,0.1c0,0,0.1,0.1,0.1,0.1l5,5.4c1.5,1.6,1.5,4.1-0.1,5.7&#10;&#9;&#9;c0,0-0.1,0.1-0.1,0.1l-41.1,38.1C368.9,304.7,366.4,304.6,364.8,303L364.8,303z"/>
	<path class="st1_order-confirmed-76" d="M367.8,305.7h-0.2c-1.4-0.1-2.8-0.7-3.8-1.8l-19.6-21.6c-2-2.2-1.9-5.6,0.3-7.6c0,0,0,0,0,0l0,0l5.5-5&#10;&#9;&#9;c2.2-2,5.7-1.9,7.7,0.4l10.9,12l31.5-29.3c2.2-2.1,5.7-1.9,7.7,0.3l0,0l5,5.4c2.1,2.2,1.9,5.7-0.3,7.7l0,0l-41.1,38.1&#10;&#9;&#9;C370.5,305.1,369.2,305.7,367.8,305.7z M353.6,271c-0.7,0-1.3,0.3-1.8,0.7l-5.5,5c-1.1,1-1.2,2.7-0.2,3.8c0,0,0,0,0,0l19.5,21.6&#10;&#9;&#9;l0,0c1,1.1,2.7,1.1,3.8,0.1l0,0l41.1-38.2c1.1-1,1.1-2.7,0.1-3.8l-5-5.4c-1-1.1-2.7-1.1-3.8-0.1l-32.6,30.2c-0.3,0.2-0.6,0.4-1,0.4&#10;&#9;&#9;c-0.4,0-0.7-0.2-1-0.4l-11.8-13C355.1,271.3,354.4,271,353.6,271L353.6,271z"/>
</g>
</svg>